<svg width="182" height="30" viewBox="0 0 182 30" fill="none" xmlns="http://www.w3.org/2000/svg">
<path d="M0 15C0 6.71573 6.71573 0 15 0V0C23.2843 0 30 6.71573 30 15V15C30 23.2843 23.2843 30 15 30V30C6.71573 30 0 23.2843 0 15V15Z" fill="#BFF009"/>
<path fill-rule="evenodd" clip-rule="evenodd" d="M15.6173 8.72848C15.1119 8.72848 14.7002 9.13996 14.7002 9.64504C14.7002 10.1501 15.1129 10.5616 15.6182 10.5616H18.9401V18.9987H16.6563V18.2382C15.548 19.3839 13.4963 19.4385 12.1842 18.6126C10.714 17.735 10.0389 15.9185 10.2828 14.2346C10.4915 12.7009 11.3881 11.4889 12.7383 10.9184C12.5656 10.5294 12.469 10.0984 12.469 9.64504C12.469 7.90749 13.8788 6.49854 15.6173 6.49854H17.2582V8.72848H15.6173ZM16.707 14.9103V12.7925H14.588C13.4183 12.7925 12.469 13.7412 12.469 14.9103C12.469 16.0794 13.4183 17.0281 14.588 17.0281C15.7578 17.0281 16.707 16.0804 16.707 14.9103Z" fill="#040404"/>
<path d="M8.37271 23.0376H11.719C12.634 23.0376 13.1625 23.3458 13.4566 23.5975C13.6123 23.7308 13.7162 23.861 13.7771 23.9495C13.8074 23.9934 13.826 24.0255 13.8342 24.0405C13.8357 24.0431 13.8368 24.0452 13.8376 24.0466C14.0359 24.4666 14.4591 24.7355 14.925 24.7355C15.3909 24.7355 15.8141 24.4666 16.0125 24.0466C16.0132 24.0452 16.0143 24.0431 16.0158 24.0405C16.024 24.0255 16.0427 23.9934 16.0729 23.9495C16.1338 23.861 16.2377 23.7308 16.3934 23.5975C16.6875 23.3458 17.216 23.0376 18.131 23.0376H21.4773V20.6321H18.131C16.6698 20.6321 15.6239 21.1256 14.925 21.6904C14.2261 21.1256 13.1802 20.6321 11.719 20.6321H8.37271V23.0376Z" fill="#040404"/>
<g clip-path="url(#clip0_1490_17010)">
<path d="M87.3969 11.21H83.4883V25.4014H87.3969V11.21Z" fill="#BFF009"/>
<path d="M102.002 11.0625C97.992 11.0575 95.1885 13.6406 94.6881 17.304C94.274 20.1655 95.4205 23.2522 97.9175 24.7435C100.146 26.1469 103.631 26.0541 105.513 24.1072V25.3996H109.392V18.4506C109.392 14.3697 106.083 11.0625 102.002 11.0625ZM102.002 22.051C100.013 22.051 98.403 20.4389 98.403 18.4523C98.403 16.4656 100.015 14.8535 102.002 14.8535C103.988 14.8535 105.601 16.4656 105.601 18.4523C105.601 20.4389 103.988 22.051 102.002 22.051Z" fill="#BFF009"/>
<path d="M68.1 9.50501C68.1 8.64674 68.7991 7.94753 69.6574 7.94753H72.4442V4.1582H69.6574C66.7048 4.1582 64.3106 6.55242 64.3106 9.50501C64.3106 10.2755 64.4746 11.0078 64.7679 11.6689C62.4748 12.6382 60.9521 14.6977 60.5974 17.304C60.1833 20.1655 61.3299 23.2523 63.8268 24.7435C66.0553 26.1469 69.5398 26.0541 71.422 24.1072V25.3996H75.3008V11.0625H69.659C68.8007 11.0625 68.1 10.3633 68.1 9.50501ZM71.5081 14.8535V18.4522C71.5081 20.4405 69.8959 22.0511 67.9094 22.0511C65.9227 22.0511 64.3106 20.4389 64.3106 18.4522C64.3106 16.4657 65.9227 14.8535 67.9094 14.8535H71.5081Z" fill="#BFF009"/>
<path d="M85.4564 4.1582C84.8284 4.1582 84.3098 4.3736 83.8989 4.80439C83.488 5.23519 83.2826 5.75546 83.2826 6.36188C83.2826 6.9683 83.488 7.51342 83.8989 7.93428C84.3098 8.35512 84.8284 8.56555 85.4564 8.56555C86.0844 8.56555 86.6262 8.35512 87.0288 7.93428C87.4297 7.51342 87.6319 6.98984 87.6319 6.36188C87.6319 5.73392 87.4314 5.23519 87.0288 4.80439C86.6279 4.3736 86.1026 4.1582 85.4564 4.1582Z" fill="#BFF009"/>
<path d="M51.61 11.21L46.694 16.4706H45.849V16.0348V4.1582H42V25.4013H45.849V20.1406H46.694L51.61 25.4013H56.3107L49.6598 18.3047L56.3107 11.21H51.61Z" fill="#BFF009"/>
</g>
<path d="M121.85 24.04H126.274C127.413 24.04 128.468 23.844 129.438 23.452C130.409 23.06 131.258 22.5093 131.986 21.8C132.714 21.0907 133.274 20.26 133.666 19.308C134.077 18.356 134.282 17.32 134.282 16.2C134.282 15.08 134.077 14.044 133.666 13.092C133.274 12.14 132.714 11.3093 131.986 10.6C131.258 9.89067 130.409 9.34 129.438 8.948C128.468 8.556 127.413 8.36 126.274 8.36H121.85V24.04ZM119.694 26V6.4H126.162C127.656 6.4 129.028 6.64267 130.278 7.128C131.529 7.61333 132.612 8.29467 133.526 9.172C134.46 10.0493 135.178 11.0853 135.682 12.28C136.205 13.4747 136.466 14.7813 136.466 16.2C136.466 17.6187 136.214 18.9253 135.71 20.12C135.206 21.3147 134.488 22.3507 133.554 23.228C132.64 24.1053 131.548 24.7867 130.278 25.272C129.028 25.7573 127.656 26 126.162 26H119.694ZM145.979 26.28C144.653 26.28 143.44 25.9627 142.339 25.328C141.256 24.6747 140.397 23.7973 139.763 22.696C139.128 21.5947 138.811 20.3627 138.811 19C138.811 17.6373 139.128 16.4053 139.763 15.304C140.397 14.2027 141.256 13.3347 142.339 12.7C143.44 12.0467 144.653 11.72 145.979 11.72C147.323 11.72 148.536 12.0467 149.619 12.7C150.701 13.3347 151.56 14.2027 152.195 15.304C152.829 16.4053 153.147 17.6373 153.147 19C153.147 20.3627 152.829 21.5947 152.195 22.696C151.56 23.7973 150.701 24.6747 149.619 25.328C148.536 25.9627 147.323 26.28 145.979 26.28ZM145.979 24.432C146.931 24.432 147.789 24.1893 148.555 23.704C149.339 23.2187 149.955 22.5653 150.403 21.744C150.869 20.9227 151.103 20.008 151.103 19C151.103 17.9733 150.869 17.0587 150.403 16.256C149.955 15.4347 149.339 14.7813 148.555 14.296C147.789 13.8107 146.931 13.568 145.979 13.568C145.027 13.568 144.159 13.8107 143.375 14.296C142.609 14.7813 141.993 15.4347 141.527 16.256C141.079 17.0587 140.855 17.9733 140.855 19C140.855 20.008 141.079 20.9227 141.527 21.744C141.993 22.5653 142.609 23.2187 143.375 23.704C144.159 24.1893 145.027 24.432 145.979 24.432ZM162.521 26.252C161.196 26.252 159.992 25.9347 158.909 25.3C157.826 24.6467 156.968 23.7693 156.333 22.668C155.698 21.5667 155.381 20.3347 155.381 18.972C155.381 17.6093 155.698 16.3867 156.333 15.304C156.968 14.2027 157.826 13.3253 158.909 12.672C159.992 12.0187 161.196 11.692 162.521 11.692C163.548 11.692 164.537 11.888 165.489 12.28C166.441 12.6533 167.281 13.1947 168.009 13.904L166.693 15.416C166.133 14.8187 165.489 14.3707 164.761 14.072C164.052 13.7547 163.314 13.596 162.549 13.596C161.597 13.596 160.729 13.8387 159.945 14.324C159.18 14.7907 158.564 15.4347 158.097 16.256C157.649 17.0587 157.425 17.964 157.425 18.972C157.425 19.98 157.649 20.8947 158.097 21.716C158.564 22.5373 159.189 23.1907 159.973 23.676C160.757 24.1427 161.625 24.376 162.577 24.376C163.342 24.376 164.061 24.2267 164.733 23.928C165.424 23.6293 166.068 23.1907 166.665 22.612L167.953 24.012C167.206 24.7213 166.366 25.272 165.433 25.664C164.5 26.056 163.529 26.252 162.521 26.252ZM174.997 26.28C173.84 26.28 172.748 26.0933 171.721 25.72C170.713 25.328 169.836 24.7867 169.089 24.096L170.349 22.752C171.003 23.3493 171.721 23.816 172.505 24.152C173.289 24.4693 174.092 24.628 174.913 24.628C176.033 24.628 176.948 24.3947 177.657 23.928C178.367 23.4613 178.721 22.8547 178.721 22.108C178.721 21.492 178.507 21.016 178.077 20.68C177.667 20.3253 177.013 20.0827 176.117 19.952L173.681 19.616C172.281 19.4107 171.236 18.9907 170.545 18.356C169.873 17.7213 169.537 16.8627 169.537 15.78C169.537 14.996 169.761 14.296 170.209 13.68C170.657 13.064 171.273 12.5787 172.057 12.224C172.86 11.8693 173.775 11.692 174.801 11.692C175.828 11.692 176.789 11.8413 177.685 12.14C178.581 12.4387 179.459 12.9053 180.317 13.54L179.225 14.94C178.441 14.3987 177.676 14.0067 176.929 13.764C176.201 13.5027 175.455 13.372 174.689 13.372C173.719 13.372 172.935 13.5867 172.337 14.016C171.74 14.4453 171.441 15.0053 171.441 15.696C171.441 16.3307 171.647 16.816 172.057 17.152C172.468 17.4693 173.131 17.6933 174.045 17.824L176.481 18.16C177.881 18.3467 178.927 18.7573 179.617 19.392C180.327 20.0267 180.681 20.8947 180.681 21.996C180.681 22.7987 180.429 23.5267 179.925 24.18C179.421 24.8333 178.74 25.3467 177.881 25.72C177.041 26.0933 176.08 26.28 174.997 26.28Z" fill="white"/>
<defs>
<clipPath id="clip0_1490_17010">
<rect width="67.5385" height="21.6923" fill="white" transform="translate(42 4.15381)"/>
</clipPath>
</defs>
</svg>
